<?xml version="1.0" encoding="UTF-8" standalone="no"?><!DOCTYPE svg PUBLIC "-//W3C//DTD SVG 1.1//EN" "http://www.w3.org/Graphics/SVG/1.1/DTD/svg11.dtd"><svg width="100%" height="100%" viewBox="0 0 179 39" version="1.1" xmlns="http://www.w3.org/2000/svg" xmlns:xlink="http://www.w3.org/1999/xlink" xml:space="preserve" xmlns:serif="http://www.serif.com/" style="fill-rule:evenodd;clip-rule:evenodd;stroke-linejoin:round;stroke-miterlimit:2;"><g style="fill:#4f46e5;"><path d="M25.282,28.641c0,2.034 -0.504,3.829 -1.513,5.385c-1.009,1.556 -2.474,2.774 -4.397,3.654c-1.923,0.88 -4.252,1.321 -6.987,1.321c-2.581,0 -4.919,-0.393 -7.013,-1.179c-2.094,-0.786 -3.885,-1.897 -5.372,-3.333l2.641,-2.974c1.214,1.145 2.615,2.056 4.205,2.731c1.59,0.675 3.462,1.013 5.615,1.013c1.436,0 2.778,-0.235 4.026,-0.705c1.248,-0.47 2.256,-1.188 3.026,-2.154c0.769,-0.966 1.154,-2.192 1.154,-3.679c0,-1.128 -0.222,-2.098 -0.667,-2.91c-0.444,-0.812 -1.231,-1.53 -2.359,-2.154c-1.128,-0.624 -2.701,-1.235 -4.718,-1.833c-2.325,-0.684 -4.338,-1.457 -6.038,-2.321c-1.701,-0.863 -3.017,-1.923 -3.949,-3.179c-0.932,-1.256 -1.397,-2.825 -1.397,-4.705c0,-1.761 0.487,-3.325 1.462,-4.692c0.974,-1.368 2.321,-2.44 4.038,-3.218c1.718,-0.778 3.697,-1.167 5.936,-1.167c2.444,0 4.568,0.346 6.372,1.038c1.803,0.692 3.44,1.688 4.91,2.987l-2.615,2.897c-1.265,-1.111 -2.624,-1.923 -4.077,-2.436c-1.453,-0.513 -2.932,-0.769 -4.436,-0.769c-1.932,0 -3.59,0.427 -4.974,1.282c-1.385,0.855 -2.077,2.162 -2.077,3.923c0,1.026 0.274,1.902 0.821,2.628c0.547,0.726 1.47,1.397 2.769,2.013c1.299,0.615 3.068,1.248 5.308,1.897c1.829,0.53 3.526,1.192 5.09,1.987c1.564,0.795 2.825,1.872 3.782,3.231c0.957,1.359 1.436,3.167 1.436,5.423Z" style="fill-rule:nonzero;"/><path d="M38,11.41l0,19.128c0,1.778 0.368,3.06 1.103,3.846c0.735,0.786 1.88,1.179 3.436,1.179c1.487,0 2.893,-0.423 4.218,-1.269c1.325,-0.846 2.355,-1.85 3.09,-3.013l0,-19.872l4.308,0l0,27l-3.667,0l-0.359,-3.641c-1.06,1.368 -2.372,2.415 -3.936,3.141c-1.564,0.726 -3.132,1.09 -4.705,1.09c-2.615,0 -4.568,-0.697 -5.859,-2.09c-1.291,-1.393 -1.936,-3.346 -1.936,-5.859l0,-19.641l4.308,0Z" style="fill-rule:nonzero;"/><path d="M68.769,14.923c0.974,-1.299 2.115,-2.303 3.423,-3.013c1.308,-0.709 2.731,-1.064 4.269,-1.064c2.41,0 4.359,0.581 5.846,1.744c1.487,1.162 2.573,2.799 3.256,4.91c0.684,2.111 1.026,4.577 1.026,7.397c0,2.718 -0.406,5.141 -1.218,7.269c-0.812,2.128 -2.013,3.799 -3.603,5.013c-1.59,1.214 -3.547,1.821 -5.872,1.821c-3.128,0 -5.581,-1.128 -7.359,-3.385l-0.308,2.795l-3.769,0l0,-37.872l4.308,-0.538l0,14.923Zm6.103,20.59c2.256,0 3.991,-0.872 5.205,-2.615c1.214,-1.744 1.821,-4.419 1.821,-8.026c0,-7.043 -2.12,-10.564 -6.359,-10.564c-1.504,0 -2.829,0.449 -3.974,1.346c-1.145,0.897 -2.077,1.893 -2.795,2.987l0,13.385c0.701,1.077 1.585,1.927 2.654,2.551c1.068,0.624 2.218,0.936 3.449,0.936Z" style="fill-rule:nonzero;"/><path d="M104.41,35.436c2.085,0 3.726,-0.385 4.923,-1.154c1.197,-0.769 1.795,-1.812 1.795,-3.128c0,-0.803 -0.15,-1.504 -0.449,-2.103c-0.299,-0.598 -0.91,-1.141 -1.833,-1.628c-0.923,-0.487 -2.342,-0.97 -4.256,-1.449c-1.863,-0.462 -3.483,-0.996 -4.859,-1.603c-1.376,-0.607 -2.444,-1.397 -3.205,-2.372c-0.761,-0.974 -1.141,-2.239 -1.141,-3.795c0,-2.274 0.949,-4.068 2.846,-5.385c1.897,-1.316 4.368,-1.974 7.41,-1.974c2.171,0 4.064,0.291 5.679,0.872c1.615,0.581 2.987,1.282 4.115,2.103l-1.897,2.923c-1.009,-0.701 -2.132,-1.278 -3.372,-1.731c-1.239,-0.453 -2.731,-0.679 -4.474,-0.679c-2.12,0 -3.624,0.329 -4.513,0.987c-0.889,0.658 -1.333,1.509 -1.333,2.551c0,0.803 0.218,1.466 0.654,1.987c0.436,0.521 1.175,0.987 2.218,1.397c1.043,0.41 2.479,0.863 4.308,1.359c1.761,0.479 3.299,1.043 4.615,1.692c1.316,0.65 2.338,1.5 3.064,2.551c0.726,1.051 1.09,2.415 1.09,4.09c0,1.915 -0.547,3.466 -1.641,4.654c-1.094,1.188 -2.509,2.051 -4.244,2.59c-1.735,0.538 -3.568,0.808 -5.5,0.808c-2.444,0 -4.526,-0.355 -6.244,-1.064c-1.718,-0.709 -3.158,-1.568 -4.321,-2.577l2.462,-2.846c1.06,0.872 2.278,1.577 3.654,2.115c1.376,0.538 2.859,0.808 4.449,0.808Z" style="fill-rule:nonzero;"/><path d="M178.205,37.051c-0.923,0.615 -2.043,1.094 -3.359,1.436c-1.316,0.342 -2.607,0.513 -3.872,0.513c-2.906,0 -5.145,-0.761 -6.718,-2.282c-1.573,-1.521 -2.359,-3.479 -2.359,-5.872l0,-16.103l-6.205,0l0,-3.333l6.205,0l0,-6.128l4.308,-0.513l0,6.641l9.333,0l-0.513,3.333l-8.821,0l0,16.051c0,1.504 0.397,2.65 1.192,3.436c0.795,0.786 2.115,1.179 3.962,1.179c1.009,0 1.94,-0.12 2.795,-0.359c0.855,-0.239 1.65,-0.547 2.385,-0.923l1.667,2.923Z" style="fill-rule:nonzero;"/></g><path d="M122.103,22.974c0,-1.951 0.517,-3.718 1.551,-5.302c1.034,-1.584 2.432,-2.844 4.192,-3.781c1.761,-0.936 3.709,-1.405 5.846,-1.405l15.077,0l0,3.067l-15.077,0c-1.436,0 -2.752,0.347 -3.949,1.042c-1.197,0.694 -2.15,1.604 -2.859,2.727c-0.709,1.124 -1.064,2.341 -1.064,3.652c0,1.327 0.355,2.552 1.064,3.675c0.709,1.124 1.662,2.029 2.859,2.715c1.197,0.687 2.513,1.03 3.949,1.03l15.077,0l0,3.067l-15.077,0c-2.137,0 -4.085,-0.464 -5.846,-1.393c-1.761,-0.929 -3.158,-2.185 -4.192,-3.769c-1.034,-1.584 -1.551,-3.359 -1.551,-5.326Z" style="fill:#ec4899;"/><rect x="123.692" y="35.103" width="25.051" height="3.308" style="fill:#ec4899;"/></svg>